<?xml version="1.0" standalone="no"?><svg xmlns="http://www.w3.org/2000/svg" viewBox="0 0 1440 320" data--h-bstatus="0OBSERVED"><path fill="#e99b63" fill-opacity="1" d="M0,128L40,138.7C80,149,160,171,240,181.3C320,192,400,192,480,165.3C560,139,640,85,720,80C800,75,880,117,960,154.7C1040,192,1120,224,1200,197.3C1280,171,1360,85,1400,42.7L1440,0L1440,320L1400,320C1360,320,1280,320,1200,320C1120,320,1040,320,960,320C880,320,800,320,720,320C640,320,560,320,480,320C400,320,320,320,240,320C160,320,80,320,40,320L0,320Z" data--h-bstatus="0OBSERVED"></path></svg>